<svg width="84" height="84" viewBox="0 0 84 84" fill="none" xmlns="http://www.w3.org/2000/svg">
    <path
        d="M38.957 52.293C38.957 51.7407 39.4047 51.293 39.957 51.293H44.044C44.5963 51.293 45.044 51.7407 45.044 52.293V56.402C45.044 56.9543 44.5963 57.402 44.044 57.402H39.957C39.4047 57.402 38.957 56.9543 38.957 56.402V52.293Z"
        fill="#404040" />
    <path
        d="M77 46.4548V9C77 7.89543 76.1046 7 75 7H9C7.89543 7 7 7.89543 7 9V46.4548M77 46.4548V60.491C77 61.5956 76.1046 62.4911 75 62.4911H49.6087M77 46.4548H7M7 46.4548V60.4911C7 61.5956 7.89543 62.4911 9 62.4911H35.1522M35.1522 62.4911L30.3073 75.6892C30.0182 76.4766 29.2685 77 28.4298 77H22.2174H54.9348M35.1522 62.4911H49.6087M61.7826 77H54.9348M54.9348 77L49.6087 62.4911"
        stroke="#404040" stroke-width="2" stroke-linecap="round" />
</svg>