<svg width="84" height="84" viewBox="0 0 84 84" fill="none" xmlns="http://www.w3.org/2000/svg">
    <path
        d="M68 6.00002V78C68 79.1046 67.1046 80 66 80H18C16.8954 80 16 79.1046 16 78V6C16 4.89543 16.8954 4 18 4L66 4.00001C67.1046 4.00002 68 4.89545 68 6.00002Z"
        stroke="#E5002A" stroke-width="2" stroke-miterlimit="10" />
    <path
        d="M24.223 14.9853C25.5284 14.9853 26.5867 13.8876 26.5867 12.5336C26.5867 11.1797 25.5284 10.082 24.223 10.082C22.9176 10.082 21.8594 11.1797 21.8594 12.5336C21.8594 13.8876 22.9176 14.9853 24.223 14.9853Z"
        stroke="#E5002A" stroke-width="2" stroke-miterlimit="10" />
    <path d="M35.0508 70.8828H49.7055" stroke="#E5002A" stroke-width="2" stroke-miterlimit="10"
        stroke-linecap="round" />
</svg>